<svg width="26" height="26" viewBox="0 0 26 26" xmlns="http://www.w3.org/2000/svg"><path d="M20 18h1v-5.509c0-.271-.232-.491-.5-.491h-.5l-.814-4.316c-.103-.544-.613-1.117-1.139-1.259 0 0-1.612-.625-5.046-.625-3.435 0-5.066.63-5.066.63-.516.149-1.016.704-1.12 1.254l-.814 4.316h-.5c-.276 0-.5.228-.5.491v5.509h1v2h2v-2h10v2h2v-2zm-2.786-11.018c.54.062 1.058.562 1.148 1.109l.638 3.908h-12l.638-3.908c.091-.557.603-1.044 1.148-1.109 0 0 2.013-.282 4.214-.282 2.201 0 4.214.282 4.214.282zm-8.214 7.518c0 .834-.672 1.5-1.5 1.5-.834 0-1.5-.672-1.5-1.5 0-.834.672-1.5 1.5-1.5.834 0 1.5.672 1.5 1.5zm11 0c0 .834-.672 1.5-1.5 1.5-.834 0-1.5-.672-1.5-1.5 0-.834.672-1.5 1.5-1.5.834 0 1.5.672 1.5 1.5z" fill="#fff"/></svg>