<svg width="26" height="26" viewBox="0 0 26 26" xmlns="http://www.w3.org/2000/svg"><path d="M19 19h1v-12.3c0-.552-.441-1.103-.976-1.218 0 0-2.589-.682-6.024-.682s-6.035.684-6.035.684c-.533.119-.965.658-.965 1.215v12.3h1v2h2v-2h8v2h2v-2zm-12-11h12v5h-12v-5zm7.51-2c.275 0 .49.224.49.5 0 .268-.22.5-.49.5h-3.019c-.275 0-.49-.224-.49-.5 0-.268.22-.5.49-.5h3.019zm-4.51 9.5c0 .834-.672 1.5-1.5 1.5-.834 0-1.5-.672-1.5-1.5 0-.834.672-1.5 1.5-1.5.834 0 1.5.672 1.5 1.5zm9 0c0 .834-.672 1.5-1.5 1.5-.834 0-1.5-.672-1.5-1.5 0-.834.672-1.5 1.5-1.5.834 0 1.5.672 1.5 1.5z" fill="#fff"/></svg>