<?xml version="1.0" encoding="iso-8859-1"?>
<!-- Generator: Adobe Illustrator 17.0.0, SVG Export Plug-In . SVG Version: 6.00 Build 0)  -->
<!DOCTYPE svg PUBLIC "-//W3C//DTD SVG 1.1//EN" "http://www.w3.org/Graphics/SVG/1.1/DTD/svg11.dtd">
<svg version="1.1" id="Layer_1" xmlns="http://www.w3.org/2000/svg" xmlns:xlink="http://www.w3.org/1999/xlink" x="0px" y="0px"
	 width="110px" height="110px" viewBox="0 0 110 110" style="enable-background:new 0 0 110 110;" xml:space="preserve">
<g>
	<path d="M69.275,39.743l-8.564-10.697c-0.092-0.115-0.195-0.233-0.301-0.341c-0.516-0.531-1.131-0.899-1.784-1.137
		c-0.88-0.647-1.875-1.17-2.975-1.518c-1.757-0.557-3.552-0.609-5.234-0.249c-0.685-0.105-1.403-0.066-2.109,0.152L35.14,30.007
		l-0.403,0.124c-0.85,0.264-1.601,0.846-2.058,1.69l-4.693,8.638l-2.319,4.35l-1.149,2.211l-0.577,1.145l-0.308,0.641l-0.195,0.424
		c-0.152,0.36-0.269,0.746-0.34,1.123c-0.239,1.702,0.947,3.274,2.649,3.512c1.702,0.238,3.272-0.948,3.512-2.649
		c0.005,0.189-0.034,0.386-0.109,0.557l-0.029,0.063l0.016-0.026l0.032-0.053l0.063-0.104l0.269-0.438l0.624-0.986l1.314-2.017
		l2.698-4.051l4.445-6.562l2.817-0.574l-5.182,16.362c-0.461,1.455-0.57,2.934-0.395,4.355c-0.222,0.545-0.359,1.137-0.382,1.761
		l-0.444,12.869L21.743,94.967c-0.87,1.494-0.477,3.442,0.961,4.46c1.521,1.075,3.627,0.715,4.703-0.804l15.909-22.477
		c0.346-0.492,0.59-1.088,0.668-1.73l0.046-0.384l0.882-7.332c0.165,0.018,0.326,0.034,0.489,0.045l11.17,13.009l-4.705,21.14
		c-0.373,1.696,0.608,3.435,2.297,3.956c1.779,0.549,3.669-0.448,4.217-2.227l7.082-22.934c0.347-1.153,0.178-2.471-0.586-3.52
		l-0.205-0.282L54.628,62.084c0.491-0.757,0.893-1.586,1.179-2.489l5.253-16.591l2.593,2.67l0.277,0.284
		c0.319,0.327,0.716,0.591,1.174,0.762l19.409,7.245c1.49,0.55,3.194-0.108,3.896-1.568c0.608-1.264,0.274-2.725-0.706-3.628"/>
	<circle cx="62.764" cy="16.206" r="11.206"/>
</g>
</svg>
