<?xml version="1.0" encoding="iso-8859-1"?>
<!-- Generator: Adobe Illustrator 17.0.0, SVG Export Plug-In . SVG Version: 6.00 Build 0)  -->
<!DOCTYPE svg PUBLIC "-//W3C//DTD SVG 1.1//EN" "http://www.w3.org/Graphics/SVG/1.1/DTD/svg11.dtd">
<svg version="1.1" id="Layer_1" xmlns="http://www.w3.org/2000/svg" xmlns:xlink="http://www.w3.org/1999/xlink" x="0px" y="0px"
	 width="110px" height="110px" viewBox="0 0 110 110" style="enable-background:new 0 0 110 110;" xml:space="preserve">
<g>
	<g id="directions-bus">
		<path style="fill:#FFFFFF;" d="M12.895,78.684c0,4.737,2.105,8.947,5.263,11.579v9.474c0,3.158,2.105,5.263,5.263,5.263h5.263
			c3.158,0,5.263-2.105,5.263-5.263v-5.263h42.105v5.263c0,3.158,2.105,5.263,5.263,5.263h5.263c3.158,0,5.263-2.105,5.263-5.263
			v-9.474c3.158-2.632,5.263-6.842,5.263-11.579V26.053C97.105,7.632,78.158,5,55,5S12.895,7.632,12.895,26.053V78.684z
			 M31.316,83.947c-4.211,0-7.895-3.684-7.895-7.895c0-4.211,3.684-7.895,7.895-7.895s7.895,3.684,7.895,7.895
			C39.211,80.263,35.526,83.947,31.316,83.947z M78.684,83.947c-4.211,0-7.895-3.684-7.895-7.895c0-4.211,3.684-7.895,7.895-7.895
			s7.895,3.684,7.895,7.895C86.579,80.263,82.895,83.947,78.684,83.947z M86.579,52.368H23.421V26.053h63.158V52.368z"/>
	</g>
</g>
</svg>
